<svg xmlns="http://www.w3.org/2000/svg" width="512" height="512">
<path style="fill:#fdfdfd; stroke:none;" d="M0 0L0 512L512 512L512 0L0 0z"/>
<path style="fill:#f4e30c; stroke:none;" d="M246 18L247 19L246 18z"/>
<path style="fill:#dc3138; stroke:none;" d="M247 18.4244C208.712 23.454 174.116 34.3362 143 58.2354C50.4087 129.352 41.1412 273.786 126 354.961C150.392 378.294 179.601 394.418 212 403.424C235.867 410.059 261.431 411.771 286 408.714C315.04 405.101 342.089 395.009 367 379.796C385.527 368.483 402.256 353.088 415.576 336C485.94 245.732 464.34 112.771 369 49.3333C351.659 37.7953 332.209 29.2036 312 24.1266C291.36 18.9413 268.287 15.6281 247 18.4244z"/>
<path style="fill:#f4e30c; stroke:none;" d="M258 37L260 39L258 37M244 38L244 39L247 39L244 38z"/>
<path style="fill:#fdfdfd; stroke:none;" d="M242 39L242 42L249 42L250 61C259.881 57.0278 246.765 42.0096 260 41C256.479 35.5687 247.508 38.5653 242 39M276 38L273 60L277 61L279 47L280 47C281.818 53.3141 284.169 61.1191 291 63L294 41L290 40L287 54C284.917 47.8814 283.014 39.4927 276 38z"/>
<path style="fill:#f4e30c; stroke:none;" d="M279 38L280 39L279 38M231 40L232 41L231 40M293 40L294 41L293 40M227 41L228 42L227 41z"/>
<path style="fill:#fdfdfd; stroke:none;" d="M223 64L227 64C229.483 56.9326 235.415 56.5603 240 62L244 61C242.163 56.738 235.668 40.7697 230.054 41.466C224.892 42.1063 223.347 59.7501 223 64z"/>
<path style="fill:#f4e30c; stroke:none;" d="M254.667 41.3333L255.333 41.6667L254.667 41.3333M233 42L234 43L233 42M289.333 42.6667L289.667 43.3333L289.333 42.6667M293.333 42.6667L293.667 43.3333L293.333 42.6667M215 43L216 46L217 46L215 43M275 43L276 44L275 43z"/>
<path style="fill:#fdfdfd; stroke:none;" d="M212 45L214 60L213 60C211.732 57.3193 205.292 44.0392 201.063 49.7469C199.047 52.4678 201 60.5795 201 64L200 64L193 52L189 53C191.559 59.7511 197.691 72.3633 206 71L204 54L214 68L219 66L216 44L212 45M308 44L295 64L301 60L315 69L313 45L308 44z"/>
<path style="fill:#f4e30c; stroke:none;" d="M310 44L311 45L310 44M283 45L284 46L283 45M226 46L227 47L226 46M230 46L231 47L230 46M253 46L253 49L254 49L253 46M306 46L307 47L306 46M204 47L205 48L204 47M212 47L213 48L212 47z"/>
<path style="fill:#dc3138; stroke:none;" d="M230 47L229 55L235 54L230 47z"/>
<path style="fill:#f4e30c; stroke:none;" d="M236 47L237 48L236 47M206 49L207 50L206 49M237 49L238 50L237 49M288.333 49.6667L288.667 50.3333L288.333 49.6667M225 50L226 51L225 50M274.333 50.6667L274.667 51.3333L274.333 50.6667M278.333 50.6667L278.667 51.3333L278.333 50.6667M292 50L293 51L292 50M303 50L304 51L303 50M308 50L309 54L310 54L308 50M313 50L313 53L314 53L313 50M229 51L230 52L229 51M249 51L249 55L250 55L249 51z"/>
<path style="fill:#dc3138; stroke:none;" d="M308 51L304 57L310 58L308 51z"/>
<path style="fill:#f4e30c; stroke:none;" d="M208 52L209 53L208 52M234 52L235 53L234 52M239 52L240 53L239 52M286 52L287 53L286 52M326 52L324 55L326 52z"/>
<path style="fill:#fdfdfd; stroke:none;" d="M322 64L320 64C318.363 71.9853 330.955 80.2686 335.387 71.7716C338.34 66.1114 327.667 59.5081 329.917 56.8279C331.697 54.7091 337.862 61.335 340 62C339.29 55.6416 327.914 46.3358 324.647 56.0586C322.609 62.1267 330.802 63.7489 330.793 68.743C330.782 75.1207 322.707 65.388 322 64z"/>
<path style="fill:#f4e30c; stroke:none;" d="M333 52L334 53L333 52M200 53L200 56L201 56L200 53M217 53L217 56L218 56L217 53M282 53L283 54L282 53M335 53L336 54L335 53M194 54L195 55L194 54M204 54L204 58L205 58L204 54M213.333 54.6667L213.667 55.3333L213.333 54.6667M230.667 54.3333L231.333 54.6667L230.667 54.3333M240 54L241 55L240 54M300 54L301 55L300 54M305 54L306 55L305 54M210 55L211 56L210 55M224 55L225 56L224 55M283 55L284 56L283 55M329 55L329 56L332 56L329 55M190 56L191 57L190 56M206 56L207 57L206 56M333 56L334 57L333 56M234.667 57.3333L235.333 57.6667L234.667 57.3333M242 57L243 58L242 57M273.333 57.6667L273.667 58.3333L273.333 57.6667M291 57L292 58L291 57M305 57L306 58L305 57M339 57L340 58L339 57M212 58L213 59L212 58M229 58L230 59L229 58M277 58L278 59L277 58M297 58L298 59L297 58M309 58L310 59L309 58M328 58L329 59L328 58z"/>
<path style="fill:#fdfdfd; stroke:none;" d="M178 59C172.615 65.1017 176.61 77.516 178 85L182 83C180.843 72.756 190.622 76.0821 197 75L178 59z"/>
<path style="fill:#f4e30c; stroke:none;" d="M192 59L193 60L192 59M197 59L198 60L197 59M208 59L209 60L208 59M223 59L224 60L223 59M238 59L239 60L238 59M243 59L244 60L243 59M296 59L297 60L296 59M335.333 59.6667L335.667 60.3333L335.333 59.6667M176 60L177 61L176 60M180 60L181 61L180 60M252.667 60.3333L253.333 60.6667L252.667 60.3333M274 60L275 61L274 60M285 60L286 61L285 60M302 60L303 61L302 60M314.333 60.6667L314.667 61.3333L314.333 60.6667M324 60L325 61L324 60M330 60L331 61L330 60M347 60L348 61L347 60M181 61L182 62L181 61M227 61L228 62L227 61M242.667 61.3333L243.333 61.6667L242.667 61.3333M300 61L301 62L300 61M306 61L307 62L306 61M331 61L332 62L331 61z"/>
<path style="fill:#fdfdfd; stroke:none;" d="M337 80C344.184 81.0705 348.647 67.6505 351 62C343.839 60.9335 338.84 74.1859 337 80z"/>
<path style="fill:#f4e30c; stroke:none;" d="M194 62L195 63L194 62M199 62L200 63L199 62M218.333 62.6667L218.667 63.3333L218.333 62.6667M287.667 62.3333L288.333 62.6667L287.667 62.3333M294.333 62.6667L294.667 63.3333L294.333 62.6667M309 62L310 63L309 62M211 63L212 64L211 63M345 63L346 64L345 63M350 63L351 64L350 63M223.667 64.3333L224.333 64.6667L223.667 64.3333M310.333 64.6667L310.667 65.3333L310.333 64.6667M319 64L320 65L319 64M322 64L323 65L322 64M328 64L329 65L328 64M179 65L180 66L179 65M186 65L187 66L186 65M196 65L197 66L196 65M323 65L323 68L324 68L323 65M329 65L330 66L329 65M344 65L345 66L344 65M349 65L350 66L349 65z"/>
<path style="fill:#dc3138; stroke:none;" d="M179 66L180 73L185 72L185 69L179 66z"/>
<path style="fill:#f4e30c; stroke:none;" d="M205 66L205 69L206 69L205 66M213 66L214 67L213 66M175.333 67.6667L175.667 68.3333L175.333 67.6667M179.333 67.6667L179.667 68.3333L179.333 67.6667M182 67L183 68L182 67M215 67L216 68L215 67M336 67L337 68L336 67M183 68L184 69L183 68M198 68L199 69L198 68M319 68L320 69L319 68M191 69L192 70L191 69M324 69L325 70L324 69M336.333 69.6667L336.667 70.3333L336.333 69.6667M356 69L357 70L356 69z"/>
<path style="fill:#fdfdfd; stroke:none;" d="M357.001 69.588C343.055 73.1919 346.805 95.7991 361.985 91.5663C374.788 87.9966 370.634 66.0648 357.001 69.588z"/>
<path style="fill:#f4e30c; stroke:none;" d="M362 69L363 70L362 69M185 70L186 71L185 70M192 70L193 71L192 70M331 70L332 71L331 70M364 70L365 71L364 70M200 71L201 72L200 71M204 71L205 72L204 71M328.667 71.3333L329.333 71.6667L328.667 71.3333M158 72L159 73L158 72z"/>
<path style="fill:#fdfdfd; stroke:none;" d="M161 98L162 98C163.582 93.9239 162.152 91.8513 159 89L159 88L177 87L177 86L165 83C172.742 68.3964 149.452 71.4198 149.331 81.0903C149.265 86.3659 157.719 94.208 161 98z"/>
<path style="fill:#f4e30c; stroke:none;" d="M201 72L202 73L201 72M255 72.4244C206.949 78.7334 166.153 98.8008 140.453 142C82.3342 239.693 164.74 368.26 278 354.715C343.584 346.871 396.509 294.152 402.83 228C410.493 147.8 340.655 61.1779 255 72.4244M335 72L336 73L335 72M340 72L341 73L340 72M345 72L346 73L345 72M165 73L166 74L165 73M180 73L181 74L180 73M188.667 73.3333L189.333 73.6667L188.667 73.3333M323 73L324 74L323 73z"/>
<path style="fill:#dc3138; stroke:none;" d="M358.042 73.7863C350.53 76.3474 350.826 90.4608 359.985 87.3773C367.699 84.78 366.987 70.7368 358.042 73.7863z"/>
<path style="fill:#f4e30c; stroke:none;" d="M155 74L156 75L155 74M176.333 74.6667L176.667 75.3333L176.333 74.6667M190 74L191 75L190 74M325 74L326 75L325 74M333 74L334 75L333 74M339 74L340 75L339 74M344 74L345 75L344 74M195 75L196 76L195 75M329.667 75.3333L330.333 75.6667L329.667 75.3333M349 75L350 76L349 75M369 75L370 76L369 75z"/>
<path style="fill:#dc3138; stroke:none;" d="M156 85C171.085 79.0859 151.649 72.615 156 85z"/>
<path style="fill:#f4e30c; stroke:none;" d="M193 76L194 77L193 76M365 76L366 77L365 76M151 77L152 78L151 77M157 77L158 78L157 77M181 77L182 78L181 77M348 77L349 78L348 77M353 77L354 78L353 77M352 79L353 80L352 79M370.333 79.6667L370.667 80.3333L370.333 79.6667M181 80L182 81L181 80M337 80L338 81L337 80M347 80L347 84L348 84L347 80M148 81L149 82L148 81M339.667 81.3333L340.333 81.6667L339.667 81.3333M165 82L166 83L165 82M177.333 82.6667L177.667 83.3333L177.333 82.6667M155 83L156 84L155 83M159 83L160 84L159 83M179 84L180 85L179 84z"/>
<path style="fill:#fdfdfd; stroke:none;" d="M367 102L368 102L377 93C376.678 96.944 372.894 105.171 375.118 108.623C378.614 114.05 390.574 98.0571 392 95L391 94L379 103C380.013 100.013 385.049 86.8535 380.667 85.3457C374.867 83.3495 365.167 97.1692 367 102z"/>
<path style="fill:#f4e30c; stroke:none;" d="M381 84L382 85L381 84M151 85L152 86L151 85M175 85L176 86L175 85M363 85L364 86L363 85z"/>
<path style="fill:#fdfdfd; stroke:none;" d="M146 113L147 113L158 100L157 99C145.1 104.546 143.733 107.464 150 94L139.296 98.3688L144 87C138.977 87.214 129.754 94.1044 132.737 99.9962C135.295 105.049 142 109.033 146 113z"/>
<path style="fill:#f4e30c; stroke:none;" d="M142 86L143 87L142 86M161 86L162 87L161 86M164 86L165 87L164 86M353 86L354 87L353 86M362 86L363 87L362 86M167 87L168 88L167 87M175 87L176 88L175 87M354 87L355 88L354 87M367 87L368 88L367 87M170 88L171 89L170 88M357.667 88.3333L358.333 88.6667L357.667 88.3333M154 89L155 90L154 89M382 89L383 90L382 89z"/>
<path style="fill:#059c57; stroke:none;" d="M338 321C345.867 286.994 359.293 253.122 370.333 220C373.435 210.696 376.244 201.302 379.333 192C380.539 188.37 383.535 182.971 382.879 179.09C382.007 173.935 372.874 169.674 369 166.849L327 136.151C312.006 125.218 296.919 114.406 282 103.371C277.042 99.7037 269.254 91.4786 263 90.7407C255.091 89.8076 241.211 104.564 235 109C211.84 125.542 189.138 142.719 166 159.29C160.116 163.504 143.497 171.629 141.929 179.039C140.231 187.061 148.731 203.194 151.333 211C159.979 236.937 168.022 263.065 176.667 289C178.791 295.372 182.414 318.625 189.225 320.682C202.146 324.585 221.469 321 235 321L338 321z"/>
<path style="fill:#f4e30c; stroke:none;" d="M352 90L353 91L352 90M161 91L162 92L161 91M357 92L357 93L361 93L357 92M377 92L378 93L377 92M146 93L147 94L146 93M148 93L149 94L148 93M157 93L158 94L157 93M381 93L382 94L381 93M389 93L390 94L389 93M138 94L139 95L138 94M145 94L146 95L145 94M388 94L389 95L388 94M132 95L133 96L132 95M137 95L138 96L137 95M164 95L165 96L164 95M387 95L388 96L387 95M131 96L132 97L131 96M136.333 96.6667L136.667 97.3333L136.333 96.6667M163 96L164 97L163 96M386 96L387 97L386 96M130 97L131 98L130 97M160 97L161 98L160 97z"/>
<path style="fill:#fdfdfd; stroke:none;" d="M149 179C155.893 212.306 169.907 245.722 180.667 278C183.367 286.102 185.771 306.774 192.702 311.972C195.232 313.87 200.036 313 203 313L230 313L333 313L376 179C347.178 161.21 320.372 138.816 293 118.849C285.983 113.73 279.044 108.507 272 103.424C269.307 101.481 265.568 97.7724 262 97.9938C252.77 98.5666 238.468 113.942 231 119.29C203.512 138.977 176.489 159.311 149 179z"/>
<path style="fill:#f4e30c; stroke:none;" d="M376 97L377 98L376 97M380 97L381 98L380 97M385 97L386 98L385 97M137 98L138 99L137 98M384 98L385 99L384 98M138 99L139 100L138 99M364 99L365 100L364 99M383 99L384 100L383 99M267 100L268 101L267 100M365 100L366 101L365 100M382 100L383 101L382 100M366 101L367 102L366 101M375 101L376 102L375 101M381 101L382 102L381 101M254 102L255 103L254 102z"/>
<path style="fill:#059c57; stroke:none;" d="M261 103.079C252.586 104.952 242.937 115.567 236 120.576C216.94 134.339 197.935 148.182 179 162.116C173.369 166.26 155.558 174.895 154.502 182.174C153.58 188.537 158.981 198.942 161 205C166.656 221.972 172.028 239.022 177.667 256C181.862 268.632 185.825 281.354 189.999 294C191.284 297.894 191.949 305.471 195.51 307.972C201.828 312.411 220.349 309 228 309L297 309C306.176 309 318.993 311.335 327.775 308.682C332.423 307.278 333.084 298.944 334.344 295C338.715 281.321 343.131 267.62 347.667 254C353.319 237.027 358.681 219.973 364.333 203C366.122 197.629 371.257 187.645 370.071 182.039C368.622 175.193 353.448 167.611 348 163.71C327.218 148.826 306.724 133.539 286 118.576C280.58 114.662 268.025 101.515 261 103.079z"/>
<path style="fill:#f4e30c; stroke:none;" d="M263 102L264 103L263 102M379.667 102.333L380.333 102.667L379.667 102.333M143 104L144 105L143 104M144 105L145 106L144 105M374 105L375 106L374 105z"/>
<path style="fill:#fdfdfd; stroke:none;" d="M116 118L133 130L134 130L136 126L130 123C131.079 119.584 134.096 115.712 133.458 112.015C131.111 98.403 118.18 112.249 116 118z"/>
<path style="fill:#f4e30c; stroke:none;" d="M129 106L130 107L129 106M139 106L140 107L139 106M382 106L383 107L382 106M122 107L123 108L122 107M131 107L132 108L131 107M140 107L141 108L140 107M132 108L133 109L132 108M141 108L142 109L141 108M278 108L279 109L278 108M399 108L400 109L399 108z"/>
<path style="fill:#fdfdfd; stroke:none;" d="M379 114L389.863 121.034L391 131L393 131C397.171 124.697 405.463 115.812 403 108L379 114z"/>
<path style="fill:#f4e30c; stroke:none;" d="M142 109L143 110L142 109M251 109L252 110L251 109M374 109L375 110L374 109M395 109L396 110L395 109M403 109L404 110L403 109M125 110L126 111L125 110z"/>
<path style="fill:#dc3138; stroke:none;" d="M121 115L121 116L127 119C130.87 111.8 126.366 109.199 121 115z"/>
<path style="fill:#f4e30c; stroke:none;" d="M127 110L128 111L127 110M133 110L134 111L133 110M143 110L144 111L143 110M243 110L244 111L243 110M274 110L275 111L274 110M375 110L376 111L375 110M378 110L379 111L378 110M392 110L393 111L392 110M119 111L120 112L119 111M144 111L145 112L144 111M376 111L377 112L376 111M388 111L389 112L388 111M129 112L130 113L129 112M145 112L146 113L145 112M384 112L385 113L384 112M404 112L405 113L404 112M122 113L123 114L122 113M380 113L381 114L380 113M396 113L397 114L396 113z"/>
<path style="fill:#dc3138; stroke:none;" d="M391 115L395 120L399 113L391 115z"/>
<path style="fill:#f4e30c; stroke:none;" d="M117 114L118 115L117 114M129 114L130 115L129 114M392 114L393 115L392 114M398 114L399 115L398 114M133 115L134 116L133 115M402 115L403 116L402 115M128 116L129 117L128 116M385 116L386 117L385 116M391 116L392 117L391 116M381.667 117.333L382.333 117.667L381.667 117.333M131 118L132 119L131 118M285 118L286 119L285 118M388 118L389 119L388 118M118 119L119 120L118 119M293 119L294 120L293 119M236 120L237 121L236 120M399 120L400 121L399 120M121 121L122 122L121 121M130 122L131 123L130 122M391 122L392 123L391 122M397 123L398 124L397 123M125 124L126 125L125 124z"/>
<path style="fill:#fdfdfd; stroke:none;" d="M394 134C395.002 139.198 398.026 147.094 404 147C398.773 134.863 403.414 134.243 414 128L413 124L394 134z"/>
<path style="fill:#f4e30c; stroke:none;" d="M134 125L135 126L134 125M413 125L414 126L413 125M128 126L129 127L128 126M390 126L391 127L390 126M407 126L408 127L407 126M304 127L305 128L304 127M131 128L132 129L131 128M225 128L226 129L225 128M389 128L390 129L389 128M394 128L395 129L394 128M134 129L135 130L134 129M217 129L218 130L217 129M300 129L301 130L300 129M402 129L403 130L402 129M400 130L401 131L400 130M409 130L410 131L409 130M391.667 131.333L392.333 131.667L391.667 131.333M407 131L408 132L407 131z"/>
<path style="fill:#fdfdfd; stroke:none;" d="M106 133L105 137L117 144C110.884 144.004 102.532 143.241 99 149L120 158L121 155L108 149L108 148C114.078 147.983 123.919 148.855 126 142L106 133z"/>
<path style="fill:#f4e30c; stroke:none;" d="M107 133L108 134L107 133M395 133L396 134L395 133M109 134L110 135L109 134M402 134L403 135L402 134M315 135L316 136L315 135M393 135L394 136L393 135M400 135L401 136L400 135M214 136L215 137L214 136M106 137L107 138L106 137M206 137L207 138L206 137M311 137L312 138L311 137M108 138L109 139L108 138M319 138L320 139L319 138M399 138L400 139L399 138M120 139L121 140L120 139M122 140L123 141L122 140M396 140L397 141L396 140M400 140L401 141L400 140M124 141L125 142L124 141M126 142L127 143L126 142M397 142L398 143L397 142M115.667 143.333L116.333 143.667L115.667 143.333M106.667 144.333L107.333 144.667L106.667 144.333M203 144L204 145L203 144M195 145L196 146L195 145M322 145L323 146L322 145M403 145L404 146L403 145M124 146L125 147L124 146M330 146L331 147L330 146M116.667 147.333L117.333 147.667L116.667 147.333M400 147L401 148L400 147M108 148L109 149L108 148M99 149L100 150L99 149M101 150L102 151L101 150M111 150L112 151L111 150M113 151L114 152L113 151M115 152L116 153L115 152M426 152L427 153L426 152M117 153L118 154L117 153M184 153L185 154L184 153M333 153L334 154L333 153z"/>
<path style="fill:#fdfdfd; stroke:none;" d="M406 163L428 156C423.826 150.28 407.121 156.526 406 163z"/>
<path style="fill:#f4e30c; stroke:none;" d="M110 154L111 155L110 154M341 154L342 155L341 154M427 154L428 155L427 154M112 155L113 156L112 155M188 155L189 156L188 155M416 155L417 156L416 155M114 156L115 157L114 156M180 156L181 157L180 156M413 156L414 157L413 156M427 156L428 157L427 156M116 157L117 158L116 157M410 157L411 158L410 157M424 157L425 158L424 157M407 158L408 159L407 158M421 158L422 159L421 158M405 159L406 160L405 159M418 159L419 160L418 159M415 160L416 161L415 160M113 161L113 162L116 162L113 161z"/>
<path style="fill:#fdfdfd; stroke:none;" d="M94 163C93.0711 171.354 105.108 178.928 112 182L111 166C115.172 165.861 117.072 165.253 118 161L94 163z"/>
<path style="fill:#dc3138; stroke:none;" d="M203 161C201.82 167.085 196.565 179.093 198.644 184.892C201.522 192.922 213.68 190.202 215.562 182.999C217.52 175.512 207.905 165.834 203 161z"/>
<path style="fill:#f4e30c; stroke:none;" d="M344 161L345 162L344 161M412 161L413 162L412 161M101 162L101 163L104 163L101 162M352 162L353 163L352 162M409 162L410 163L409 162M429 162L431 164L429 162M177 163L178 164L177 163M425 163L426 164L425 163z"/>
<path style="fill:#fdfdfd; stroke:none;" d="M409 171L423 168C419.211 173.379 411.413 177.791 413 185L434 180L433 176L419 179C421.838 176.162 430.802 169.84 430.079 165.322C429.227 159.997 410.371 166.83 409 171z"/>
<path style="fill:#f4e30c; stroke:none;" d="M117 164L118 165L117 164M169 164L170 165L169 164M421 164L422 165L421 164M93 165L94 166L93 165M417 165L418 166L417 165M104 166L104 167L107 167L104 166M111 166L112 167L111 166M413 166L414 167L413 166z"/>
<path style="fill:#dc3138; stroke:none;" d="M99 167L99 168L106 172L107 167L99 167z"/>
<path style="fill:#f4e30c; stroke:none;" d="M409 167L410 168L409 167M408 168L409 169L408 168M422.333 168.667L422.667 169.333L422.333 168.667M101 169L102 170L101 169M110 169L111 170L110 169M418 169L419 170L418 169M96 170L97 171L96 170M106 170L107 171L106 170M414 170L415 171L414 170M421 170L422 171L421 170M166 171L167 172L166 171M409.667 171.333L410.333 171.667L409.667 171.333M420 171L421 172L420 171M109 172L110 173L109 172M158 172L159 173L158 172M359 172L360 173L359 172M419 172L420 173L419 172M367 173L368 174L367 173M418 173L419 174L418 173M101 174L102 175L101 174M109 175L110 176L109 175M416 175L417 176L416 175M430 176L431 177L430 176M433 176L434 177L433 176M420 177L421 178L420 177M426 177L427 178L426 177M106 178L107 179L106 178z"/>
<path style="fill:#fdfdfd; stroke:none;" d="M253 187L273 187C270.57 175.067 256.224 176.243 253 187z"/>
<path style="fill:#f4e30c; stroke:none;" d="M419 178L420 179L419 178M422 178L423 179L422 178M454 178L455 179L454 178M155 179L156 180L155 179M112 180L113 181L112 180M309 180L310 181L309 180z"/>
<path style="fill:#fdfdfd; stroke:none;" d="M196 190C196.046 203.045 210.037 199 220 199C245.173 199 270.881 200.528 296 198.956C303.173 198.507 309.524 188.148 316.891 192.183C328.919 198.77 311.966 212.393 307.148 216.884C305.134 218.762 302.612 222.64 305.604 224.968C310.355 228.666 317.602 221.754 320.572 218.714C328.585 210.509 335.372 196.333 326.606 186.105C313.92 171.305 303.364 187.933 291 189.852C281.125 191.384 269.995 190 260 190L196 190z"/>
<path style="fill:#f4e30c; stroke:none;" d="M370 180L371 181L370 180M375 180L376 181L375 180M430 180L431 181L430 180M149 181L150 182L149 181M426 181L427 182L426 181z"/>
<path style="fill:#fdfdfd; stroke:none;" d="M90 182L89 186C91.6394 186.835 94.2644 187.292 97 187.753C100.71 188.378 112.237 192.486 103.876 196.933C98.1768 199.964 90.1312 192.217 87 200C92.7001 200.451 100.42 203.59 105.945 201.397C111.602 199.151 112.782 189.573 107.772 186.09C103.122 182.857 95.4133 183.334 90 182z"/>
<path style="fill:#f4e30c; stroke:none;" d="M91.6667 182.333L92.3333 182.667L91.6667 182.333M97.6667 183.333L98.3333 183.667L97.6667 183.333M374 183L375 184L374 183M418 183L419 184L418 183M89 184L90 185L89 184M104 184L105 185L104 184M253 184L254 185L253 184M412 184L413 185L412 184M414 184L415 185L414 184M107 185L108 186L107 185M89 186L90 187L89 186M369 186L370 187L369 186M95 187L96 188L95 187M155 187L156 188L155 187M101 188L102 189L101 188M110 188L111 189L110 188M430 188L430 189L433 189L430 188z"/>
<path style="fill:#fdfdfd; stroke:none;" d="M414 190C414.012 194.504 413.651 200.9 416.738 204.581C421.139 209.827 432.182 208.619 435.543 202.811C438.125 198.351 436.206 192.801 436 188L414 190z"/>
<path style="fill:#f4e30c; stroke:none;" d="M105 189L106 190L105 189M368 189L369 190L368 189M419.667 189.333L420.333 189.667L419.667 189.333M156 190L157 191L156 190M107.333 192.667L107.667 193.333L107.333 192.667M367 192L368 193L367 192M436.333 192.667L436.667 193.333L436.333 192.667M157 193L158 194L157 193M306 193L307 194L306 193M423 193L423 194L426 194L423 193z"/>
<path style="fill:#dc3138; stroke:none;" d="M418 194C418.308 206.74 432.889 205.294 433 193L418 194z"/>
<path style="fill:#f4e30c; stroke:none;" d="M87.3333 196.667L87.6667 197.333L87.3333 196.667M93 196L94 197L93 196M110 196L111 197L110 196M99.6667 197.333L100.333 197.667L99.6667 197.333M196 198L197 199L196 198M414.333 198.667L414.667 199.333L414.333 198.667M90.6667 200.333L91.3333 200.667L90.6667 200.333M108 200L109 201L108 200M330 200L331 201L330 200M418 200L419 201L418 200M432 200L433 201L432 200M96.6667 201.333L97.3333 201.667L96.6667 201.333z"/>
<path style="fill:#fdfdfd; stroke:none;" d="M241 201C245.079 223.518 278.855 222.69 285 202L241 201z"/>
<path style="fill:#f4e30c; stroke:none;" d="M284 201L285 202L284 201M436 201L437 202L436 201M423 203L423 204L426 204L423 203M435 203L436 204L435 203M319 204L320 205L319 204M433 205L434 206L433 205M87 206L87 207L90 207L87 206M418 206L419 207L418 206z"/>
<path style="fill:#fdfdfd; stroke:none;" d="M87 207L87 224C90.3213 222.901 90.7374 221.41 91 218L109 218L109 213L91 213L91 207L87 207z"/>
<path style="fill:#f4e30c; stroke:none;" d="M421 207L422 208L421 207M428 207L429 208L428 207M365 211L366 212L365 211M159 212L160 213L159 212z"/>
<path style="fill:#fdfdfd; stroke:none;" d="M421.015 213.742C407.242 219.169 418.487 239.747 431.956 233.346C445.01 227.143 433.734 208.731 421.015 213.742z"/>
<path style="fill:#f4e30c; stroke:none;" d="M430 213L431 214L430 213M109 214L109 217L110 217L109 214M250 214L251 215L250 214M275 214L276 215L275 214M364 214L365 215L364 214M160 215L161 216L160 215M254 216L255 217L254 216M271 216L272 217L271 216M306 217L307 218L306 217M321 217L322 218L321 217M363 217L364 218L363 217M423 217L424 218L423 217z"/>
<path style="fill:#dc3138; stroke:none;" d="M424.015 217.663C414.011 219.848 420.236 231.977 428.956 229.562C437.978 227.064 431.904 215.94 424.015 217.663z"/>
<path style="fill:#f4e30c; stroke:none;" d="M427 217L428 218L427 217M415 218L416 219L415 218M318 220L319 221L318 220M358 220L359 221L358 220M437.333 220.667L437.667 221.333L437.333 220.667M166 221L167 222L166 221M303.333 221.667L303.667 222.333L303.333 221.667M418 221L419 222L418 221M433 221L434 222L433 221M414 222L414 226L415 226L414 222M90 223L91 224L90 223M357 223L358 224L357 223M87 224L87 225L90 225L87 224M107 224L108 225L107 224z"/>
<path style="fill:#fdfdfd; stroke:none;" d="M108 224C103.578 226.608 90.1461 231.313 89.466 236.995C88.7516 242.965 107.799 244.666 112 245L112 241C104.195 239.373 104.632 232.463 110 228L108 224z"/>
<path style="fill:#f4e30c; stroke:none;" d="M167 224L168 225L167 224M105 225L106 226L105 225M109 225L110 226L109 225M311 225L312 226L311 225M418 225L419 226L418 225M437.333 225.667L437.667 226.333L437.333 225.667z"/>
<path style="fill:#fdfdfd; stroke:none;" d="M254 226L253 235L269 235L268 226L254 226z"/>
<path style="fill:#f4e30c; stroke:none;" d="M356 226L357 227L356 226M433 226L434 227L433 226M168 227L169 228L168 227M419 227L420 228L419 227M100 228L101 229L100 228M420 228L421 229L420 228M98 229L99 230L98 229M107 229L108 230L107 229M268 229L269 230L268 229M422 229L423 230L422 229M430 229L431 230L430 229M416 230L417 231L416 230M417 231L418 232L417 231M93 232L94 233L93 232M418 232L419 233L418 232z"/>
<path style="fill:#dc3138; stroke:none;" d="M95 238L102 239L102 233L95 238z"/>
<path style="fill:#f4e30c; stroke:none;" d="M105.333 233.667L105.667 234.333L105.333 233.667M420 233L421 234L420 233M98 234L99 235L98 234M423.667 234.333L424.333 234.667L423.667 234.333M428.667 234.333L429.333 234.667L428.667 234.333M88 235L88 238L89 238L88 235M96 235L97 236L96 235M94.3333 236.667L94.6667 237.333L94.3333 236.667z"/>
<path style="fill:#fdfdfd; stroke:none;" d="M250 246L272 246L271 237C261.212 237 251.549 234.082 250 246z"/>
<path style="fill:#f4e30c; stroke:none;" d="M99 238L100 239L99 238M102 238L103 239L102 238M413 238L414 239L413 238z"/>
<path style="fill:#fdfdfd; stroke:none;" d="M414 238L413 242L426 244L410 255L432 260C430.967 254.048 424.089 254.05 419 253L419 252L435 247L435 242L414 238z"/>
<path style="fill:#f4e30c; stroke:none;" d="M416 238L417 239L416 238M421 239L422 240L421 239M90 240L91 241L90 240M108 240L109 241L108 240M426 240L427 241L426 240M94 241L95 242L94 241M430 241L431 242L430 241M98 242L99 243L98 242M250 242L251 243L250 242M416 242L417 243L416 242M102 243L103 244L102 243M420 243L421 244L420 243M435 243L436 244L435 243M107 244L108 245L107 244M425 244L426 245L425 244M111 245L112 246L111 245M354 245L355 246L354 245M170 246L171 247L170 246M423 246L424 247L423 246M420 247L421 248L420 247M432 247L433 248L432 247M353 248L354 249L353 248M417 248L418 249L417 248M429 248L430 249L429 248z"/>
<path style="fill:#fdfdfd; stroke:none;" d="M98 253C91.8184 256.118 91.2693 268.543 100 268.543C108.082 268.543 103.902 259.309 107.023 255.466C109.685 252.188 112.209 257.764 111.642 260.116C110.962 262.936 110.291 264.069 111 267C116.688 262.666 118.211 249.457 108.015 249.457C99.9777 249.457 104.017 258.624 100.991 262.534C98.1606 266.19 97.4907 259.629 97.7346 258.024C98.0077 256.226 98.0938 254.819 98 253z"/>
<path style="fill:#f4e30c; stroke:none;" d="M110 249L111 250L110 249M171 249L172 250L171 249M247 249L248 250L247 249z"/>
<path style="fill:#fdfdfd; stroke:none;" d="M246 258L277 258L275 249C264.883 249 246.633 244.384 246 258z"/>
<path style="fill:#f4e30c; stroke:none;" d="M414 249L415 250L414 249M454 249L455 250L454 249M112 250L113 251L112 250M113 251L114 252L113 251M352 251L353 252L352 251M421 251L422 252L421 251M102 252L103 253L102 252M172 252L173 253L172 252M410 252L411 253L410 252M95 253L96 254L95 253M107 253L107 254L110 254L107 253M421 253L422 254L421 253M94 254L95 255L94 254M106 254L107 255L106 254M347 254L348 255L347 254M425 254L426 255L425 254M98 255L99 256L98 255M111 255L112 256L111 255M115 255L116 256L115 255M177 255L178 256L177 255M411 255L412 256L411 255M430 255L431 256L430 255M415 256L416 257L415 256M432.333 256.667L432.667 257.333L432.333 256.667M346 257L347 258L346 257M420 257L421 258L420 257M112 258L113 259L112 258M178 258L179 259L178 258M424.667 258.333L425.333 258.667L424.667 258.333M96.3333 259.667L96.6667 260.333L96.3333 259.667M429 259L430 260L429 259M244 260L244 261L278 261L244 260M345 260L346 261L345 260z"/>
<path style="fill:#fdfdfd; stroke:none;" d="M408 260L404 277L406 277L410 265L416 267L413 279C417.345 277.488 418.035 273.168 419 269C425.985 271.593 420.831 277.374 422 283L424 283L429 267L408 260z"/>
<path style="fill:#f4e30c; stroke:none;" d="M409 260L410 261L409 260M111 261L112 262L111 261M179 261L180 262L179 261z"/>
<path style="fill:#fdfdfd; stroke:none;" d="M241 269L281 269L279 261C267.274 261 245.331 255.876 241 269z"/>
<path style="fill:#f4e30c; stroke:none;" d="M412 261L413 262L412 261M407 262L408 263L407 262M415 262L416 263L415 262M97 263L98 264L97 263M101 263L102 264L101 263M109 263L110 264L109 263M98 264L99 265L98 264M114 264L115 265L114 264M420 264L421 265L420 264M94 265L95 266L94 265M105 265L106 266L105 265M113 265L114 266L113 265M410 265L411 266L410 265M423 265L424 266L423 265M413 266L414 267L413 266M117.667 267.333L118.333 267.667L117.667 267.333M405 267L406 268L405 267M409 267L410 268L409 267M97 268L98 269L97 268M102 268L103 269L102 268z"/>
<path style="fill:#fdfdfd; stroke:none;" d="M117 268L113 277C97.9648 269.569 101.191 285.549 106 294L126 285L125 281L116 285L119 268L117 268z"/>
<path style="fill:#f4e30c; stroke:none;" d="M119 269L120 270L119 269M415 269L416 270L415 269M421 269L422 270L421 269M115 270L116 271L115 270M404 270L405 271L404 270M428 270L429 271L428 270M418 271L419 272L418 271M119 272L120 273L119 272z"/>
<path style="fill:#fdfdfd; stroke:none;" d="M237 281L286 281C284.98 278.378 284.067 274.67 281.582 273.028C275.092 268.739 257.697 272 250 272C247.142 272 242.993 271.308 240.499 273.028C238.014 274.742 237.472 278.272 237 281z"/>
<path style="fill:#f4e30c; stroke:none;" d="M407 272L408 273L407 272M414 272L415 273L414 272M403 273L404 274L403 273M423 273L424 274L423 273M105 274L106 275L105 274M108 274L109 275L108 274M417 274L418 275L417 274M406 275L407 276L406 275M426 275L427 276L426 275M112 276L113 277L112 276M403 276L404 277L403 276M116 277L117 278L116 277M180 277L181 278L180 277M412 277L413 278L412 277M416 277L417 278L416 277M100.333 278.667L100.667 279.333L100.333 278.667M107 278L108 279L107 278M425 278L426 279L425 278z"/>
<path style="fill:#dc3138; stroke:none;" d="M105 279C105.241 284.172 106.124 287.985 112 287C111.256 282.334 109.843 279.77 105 279z"/>
<path style="fill:#f4e30c; stroke:none;" d="M109 279L110 280L109 279M343 279L344 280L343 279M104 280L104 283L105 283L104 280M100 281L101 282L100 281M123 281L124 282L123 281M420 281L421 282L420 281M424 281L425 282L424 281M121 282L122 283L121 282M342 282L343 283L342 282z"/>
<path style="fill:#fdfdfd; stroke:none;" d="M415 293L407 303C414.819 302.746 423.546 288.981 412.956 288.207C408.044 287.848 404.067 292.893 400 295L407 282C399.742 282.176 388.174 294.01 399.109 298.239C404.924 300.488 409.381 293.224 415 293z"/>
<path style="fill:#f4e30c; stroke:none;" d="M421 282L422 283L421 282M111 283L112 284L111 283M182 283L183 284L182 283M101 284L102 285L101 284M105 284L106 285L105 284M112 285L113 286L112 285M125 285L126 286L125 285M341 285L342 286L341 285M397 285L398 286L397 285M406 285L407 286L406 285M102 286L103 287L102 286M183 286L184 287L183 286M402 286L403 287L402 286M405 286L406 287L405 286z"/>
<path style="fill:#fdfdfd; stroke:none;" d="M217 287L217 292L283 292C285.743 292 303.953 293.567 303.079 289.17C302.265 285.073 286.249 287 283 287L217 287z"/>
<path style="fill:#f4e30c; stroke:none;" d="M400 287L401 288L400 287M411 287L411 288L414 288L411 287M107 288L108 289L107 288M118 288L119 289L118 288M116 289L117 290L116 289M127 289L128 290L127 289z"/>
<path style="fill:#fdfdfd; stroke:none;" d="M126 290C128.354 295.455 133.954 301.173 126 304L121 295L120 295L124 307L119 309L112 299C111.177 303.399 115.109 314.265 121.043 313.15C126.514 312.121 132.154 306.688 137 304C135.928 298.456 132.235 290.28 126 290z"/>
<path style="fill:#f4e30c; stroke:none;" d="M129 289L130 290L129 289M406 290L407 291L406 290M417 290L418 291L417 290M104 291L105 292L104 291M126 291L127 292L126 291M303 291L304 292L303 291M335 291L336 292L335 291M405 291L406 292L405 291M109 292L110 293L109 292M189 292L190 293L189 292M404 292L405 293L404 292M105 293L106 294L105 293M107 293L108 294L107 293M403 293L404 294L403 293M414.333 293.667L414.667 294.333L414.333 293.667M132 294L133 295L132 294M334 294L335 295L334 294M400 294L401 295L400 294M190 295L191 296L190 295M395 295L396 296L395 295M118.333 296.667L118.667 297.333L118.333 296.667M129 296L130 297L129 296M417 296L418 297L417 296M122 297L123 298L122 297M134 297L135 298L134 297M333 297L334 298L333 297M405 297L406 298L405 297M191 298L192 299L191 298M390 298L391 299L390 298M398 298L399 299L398 298M113 299L114 300L113 299M131 299L132 300L131 299z"/>
<path style="fill:#fdfdfd; stroke:none;" d="M389 299C389.309 305.932 400.93 312.062 407 314L408 310L389 299z"/>
<path style="fill:#f4e30c; stroke:none;" d="M110.333 300.667L110.667 301.333L110.333 300.667M124 300L125 301L124 300M388 300L389 301L388 300M393 300L394 301L393 300M414 301L415 302L414 301M121 302L122 303L121 302M130 302L131 303L130 302M137 302L138 303L137 302M396 302L397 303L396 302M126 303L127 304L126 303M116 304L117 305L116 304M135 304L136 305L135 304z"/>
<path style="fill:#fdfdfd; stroke:none;" d="M386 304L382.613 315.812L372 321C377.111 322.729 389.479 330.002 394.678 327.647C400.468 325.023 388.617 307.159 386 304z"/>
<path style="fill:#f4e30c; stroke:none;" d="M399 304L400 305L399 304M123 305L124 306L123 305M113 306L114 307L113 306M132 306L133 307L132 306M384 306L385 307L384 306M394 306L395 307L394 306M118 307L119 308L118 307M122 307L123 308L122 307M388 307L389 308L388 307M403 307L404 308L403 307M397 308L398 309L397 308M115 309L116 310L115 309M127 309L128 310L127 309M195 309L195 310L329 310C318.496 305.592 300.42 309 289 309L195 309M389 309L390 310L389 309M406 309L407 310L406 309M124 311L125 312L124 311M390 311L391 312L390 311M401 311L402 312L401 311M407 312L408 313L407 312M197 313L198 314L197 313M331 313L332 314L331 313M391 313L392 314L391 313M404 313L405 314L404 313M118.667 314.333L119.333 314.667L118.667 314.333z"/>
<path style="fill:#fdfdfd; stroke:none;" d="M134 334L135 334L151 320C147.442 316.743 146.068 320.015 142 319.404C138.313 318.851 136.104 314.846 132.005 315.427C120.032 317.123 130.209 330.035 134 334z"/>
<path style="fill:#f4e30c; stroke:none;" d="M135 315L136 316L135 315M383 315L384 316L383 315M392 315L393 316L392 315M128 316L129 317L128 316M148 316L149 317L148 316M382 316L383 317L382 316z"/>
<path style="fill:#dc3138; stroke:none;" d="M387 316L384 321L392 323L387 316z"/>
<path style="fill:#f4e30c; stroke:none;" d="M388 316L389 317L388 316M127 317L128 318L127 317M149 317L150 318L149 317M375 317L376 318L375 317M386 317L387 318L386 317M393 317L394 318L393 317M150 318L151 319L150 318M385 318L386 319L385 318M389 318L390 319L389 318M132 319L133 320L132 319z"/>
<path style="fill:#dc3138; stroke:none;" d="M133 328L139 325C134.998 317.729 128.788 320.198 133 328z"/>
<path style="fill:#f4e30c; stroke:none;" d="M134 319L135 320L134 319M144 319L145 320L144 319M143 320L144 321L143 320M373 321L374 322L373 321M386 321L387 322L386 321M376 322L377 323L376 322M388 322L389 323L388 322M138 323L139 324L138 323M391 323L392 324L391 323M145 324L146 325L145 324M131 325L132 326L131 325M144 325L145 326L144 325M384 325L385 326L384 325M397 325L398 326L397 325M132 326L133 327L132 326M136 326L137 327L136 326M387 326L388 327L387 326M128 327L129 328L128 327M135 327L136 328L135 327M390 327L391 328L390 327M393 328L394 329L393 328M137 331L138 332L137 331M136 332L137 333L136 332M133 333L134 334L133 333M161 341L162 342L161 341z"/>
<path style="fill:#fdfdfd; stroke:none;" d="M162.108 341.786C155.345 344.234 159.372 354.676 165.892 351.716C172.16 348.87 168.65 339.419 162.108 341.786z"/>
<path style="fill:#f4e30c; stroke:none;" d="M166 341L167 342L166 341M361 341L362 342L361 341z"/>
<path style="fill:#fdfdfd; stroke:none;" d="M362.105 341.786C356.014 344.012 358.456 353.787 364.96 352.069C372.022 350.203 368.945 339.287 362.105 341.786z"/>
<path style="fill:#f4e30c; stroke:none;" d="M368 343L369 344L368 343M158 344L159 345L158 344M358 344L359 345L358 344M369 345L370 346L369 345M169 348L170 349L169 348M369 348L370 349L369 348M358 349L359 350L358 349M168 350L169 351L168 350M368 350L369 351L368 350M160 351L161 352L160 351M167 351L168 352L167 351M367 351L368 352L367 351M162 352L163 353L162 352M165 352L166 353L165 352M362 352L363 353L362 352M365 352L366 353L365 352M210 358L211 359L210 358z"/>
<path style="fill:#fdfdfd; stroke:none;" d="M209 359C207.914 366.38 197.171 387.017 204 392L208 379C213.213 380.076 219.65 383.001 224.985 381.562C232.106 379.643 233.79 370.174 228.772 365.278C224.246 360.861 215.091 359.278 209 359M320 392L323 391L313 359C305.596 361.484 317.034 386.372 320 392z"/>
<path style="fill:#f4e30c; stroke:none;" d="M217 360L218 361L217 360M313 361L314 362L313 361M208 362L209 363L208 362M224 362L225 363L224 362M212 363L213 364L212 363z"/>
<path style="fill:#dc3138; stroke:none;" d="M213 363C212.029 365.536 210.906 368.262 210.573 370.981C208.767 385.741 240.588 372.777 221.981 365.764C219.07 364.667 215.967 363.949 213 363z"/>
<path style="fill:#f4e30c; stroke:none;" d="M214 363L215 364L214 363M295 363L294 366L295 366L295 363z"/>
<path style="fill:#fdfdfd; stroke:none;" d="M296 363L299 390C292.555 383.555 281.925 366.385 272 368L278 401L282 400L278 375C283.956 380.956 294.937 397.996 304 396L298 363L296 363z"/>
<path style="fill:#f4e30c; stroke:none;" d="M217 364L218 365L217 364M228 364L229 365L228 364M298 364L299 365L298 364M314 364L315 365L314 364M207 365L208 366L207 365M229 365L230 366L229 365M310 365L311 366L310 365M230 366L231 367L230 366z"/>
<path style="fill:#fdfdfd; stroke:none;" d="M241 366L239 400C245.535 397.831 240.434 391.41 244.603 387.693C248.591 384.138 256.862 388.622 261.786 385.142C266.945 381.497 267.236 372.658 261.786 369.14C256.646 365.821 246.97 366.123 241 366z"/>
<path style="fill:#f4e30c; stroke:none;" d="M247 366L247 367L250 367L247 366M211 367L212 368L211 367M257 367L258 368L257 367M273 367L274 368L273 367M231 368L232 369L231 368M311 368L312 369L311 368M206 369L207 370L206 369M272.333 369.667L272.667 370.333L272.333 369.667M299.333 369.667L299.667 370.333L299.333 369.667M210 370L211 371L210 370M227 370L228 371L227 370z"/>
<path style="fill:#dc3138; stroke:none;" d="M245 370L244 382C248.727 383.125 269.761 381.983 259.482 372.742C256.38 369.953 249.003 370.316 245 370z"/>
<path style="fill:#f4e30c; stroke:none;" d="M249 370L249 371L252 371L249 370M295.333 370.667L295.667 371.333L295.333 370.667M264 371L265 372L264 371M312 371L313 372L312 371M205 372L206 373L205 372M227 373L228 374L227 373M240 373L240 376L241 376L240 373M265 373L266 374L265 373M209 374L210 375L209 374M313 374L314 375L313 374M226 375L227 376L226 375M231 375L232 376L231 375M261 375L262 376L261 375M273 375L274 376L273 375M300 375L301 376L300 375M214 376L215 377L214 376M244 376L244 379L245 379L244 376M296 376L297 377L296 376M217 377L218 378L217 377M224 377L225 378L224 377M230 377L231 378L230 377M286 377L287 378L286 377M314 377L315 378L314 377M261 378L262 379L261 378M287 378L288 379L287 378M319 378L320 379L319 378M203 379L204 380L203 379M288 379L289 380L288 379M214 380L215 381L214 380M265 380L266 381L265 380M278 380L279 381L278 380M289 380L290 381L289 380M315 380L316 381L315 380M207 381L208 382L207 381M218 381L219 382L218 381M274 381L275 382L274 381M290 381L291 382L290 381M301 381L302 382L301 381M320 381L321 382L320 381M245 382L246 383L245 382M258 382L259 383L258 382M264 382L265 383L264 382M291 382L292 383L291 382M297 382L298 383L297 382M202 383L203 384L202 383M292 383L293 384L292 383M316 383L317 384L316 383M206 384L207 385L206 384M239 384L239 387L240 387L239 384M287 384L288 385L287 384M321 384L322 385L321 384M288 385L289 386L288 385M201 386L202 387L201 386M246.667 386.333L247.333 386.667L246.667 386.333M259 386L260 387L259 386M279 386L280 387L279 386M289 386L290 387L289 386M317 386L318 387L317 386M243 387L243 390L244 390L243 387M275 387L276 388L275 387M290 387L291 388L290 387M298 387L298 390L299 390L298 387M302 387L303 388L302 387M322 387L323 388L322 387M205 388L206 389L205 388M291 388L292 389L291 388M292 389L293 390L292 389M200 390L201 391L200 390M323 390L324 391L323 390M179 391L180 392L179 391M202 391L203 392L202 391M204 391L205 392L204 391M280.333 391.667L280.667 392.333L280.333 391.667M319 391L320 392L319 391M321 391L322 392L321 391M276 392L277 393L276 392M303.333 392.667L303.667 393.333L303.333 392.667M238 396L238 400L239 400L238 396M303 396L304 397L303 396M281 397L282 398L281 397M277 398L278 399L277 398M242 399L243 400L242 399M280.667 400.333L281.333 400.667L280.667 400.333M212 403L213 404L212 403M231 407L232 408L231 407M293 407L294 408L293 407M147 458L148 459L147 458z"/>
<path style="fill:#020202; stroke:none;" d="M163 481C159.093 482.387 155.024 484.868 150.715 483.887C140.949 481.661 140.622 467.409 149.015 463.183C153.84 460.754 158.665 464.042 163 466C162.7 456.988 151.96 456.153 145.015 459.573C139.769 462.156 138.088 467.515 138.019 473C137.947 478.644 139.68 484.246 145.043 486.95C151.452 490.181 162.319 489.563 163 481M167 488L172 488L172 477C174.601 476.998 177.464 477.271 179.996 476.566C198.551 471.406 176.433 448.99 168.028 459.603C163.971 464.725 167 481.551 167 488M192 458L192 488C197.819 488 204.747 488.983 209.985 485.91C218.642 480.831 219.494 466.644 210.906 461.008C205.527 457.479 198.132 458 192 458M244.001 458.573C227.423 463.352 234.711 493.87 252.999 488.195C270.112 482.885 262.966 453.105 244.001 458.573M268 458L268 488L272 488L272 464L273 464C275.944 472.089 281.266 487.677 291 488L291 458C283.041 459.328 286 472.739 286 479C281.346 471.027 278.521 458.125 268 458M298 458L298 488L317 488L317 484L303 484C303 477.245 306.447 459.41 298 458M319 458L319 462L323 462L323 484L319 484L319 488L331 488L331 484L327 484L327 462L331 462L331 458L319 458M337 458L337 488L341 488L341 464L342 464C345.341 472.025 350.091 487.671 360 488L360 458L356 458L356 481C351.144 472.68 348.081 458.132 337 458M367 458L367 488L387 488L387 484L372 484L372 474L387 474L387 470L372 470L372 463C377.589 463 385.83 465.011 387 458L367 458z"/>
<path style="fill:#fdfdfd; stroke:none;" d="M172 462L172 473C184.094 472.891 183.776 462.547 172 462M196 462L196 484C216.402 483.986 216.033 462.862 196 462M245.105 462.743C235.174 466.899 239.964 489.437 251.981 483.667C262.487 478.623 257.528 457.544 245.105 462.743z"/>
<path style="fill:#f4e30c; stroke:none;" d="M236 481L237 482L236 481M159 482L160 483L159 482M149 488L150 489L149 488z"/>
</svg>
